<?xml version="1.0" encoding="iso-8859-1"?>
<!-- Generator: Adobe Illustrator 16.0.0, SVG Export Plug-In . SVG Version: 6.00 Build 0)  -->
<!DOCTYPE svg PUBLIC "-//W3C//DTD SVG 1.1//EN" "http://www.w3.org/Graphics/SVG/1.1/DTD/svg11.dtd">
<svg version="1.1" id="Capa_1" xmlns="http://www.w3.org/2000/svg" xmlns:xlink="http://www.w3.org/1999/xlink" x="0px" y="0px"
	 width="94px" height="94px" viewBox="0 0 94 94" style="enable-background:new 0 0 94 94;" xml:space="preserve">
<g>
	<g>
		<path d="M33.896,46.011c-0.027-1.339-0.055-2.595-0.084-3.851c-0.113-0.029-0.229-0.058-0.346-0.087
			c-0.316,0.817-0.705,1.613-0.936,2.454C32.152,45.924,32.193,45.935,33.896,46.011z"/>
		<path d="M44.977,45.792c0.098-1.229,0.051-2.468,0.068-3.702c-0.109-0.026-0.219-0.053-0.33-0.077
			c-0.561,1.58-1.121,3.16-1.686,4.753C44.76,47.287,44.863,47.259,44.977,45.792z"/>
		<path d="M89,0H5C2.238,0,0,2.239,0,5v84c0,2.761,2.238,5,5,5h84c2.762,0,5-2.239,5-5V5C94,2.239,91.762,0,89,0z M25.465,55.729
			c-0.66,0.193-0.871-0.062-1.059-0.682c-1.072-3.553-2.197-7.087-3.352-10.774c-0.064,0.476-0.143,0.869-0.16,1.264
			c-0.113,2.15-0.197,4.303-0.322,6.452c-0.029,0.507-0.082,1.055-0.295,1.497c-0.158,0.322-0.57,0.611-0.926,0.721
			c-0.514,0.156-1.107,0.052-1.619,0.206c-1.322,0.394-2.029-0.28-2.635-1.312c-0.736-1.268-1.529-2.502-2.299-3.748
			c-0.053,0.002-0.105,0.008-0.158,0.013c0.148,1.144,0.275,2.292,0.459,3.43c0.104,0.66-0.16,1.047-0.734,1.29
			c-0.129,0.053-0.244,0.124-0.371,0.173c-2.549,0.978-3.043,0.634-3.451-2.032c-0.588-3.847-0.441-7.701-0.307-11.56
			c0.008-0.222,0.258-0.533,0.471-0.63c0.432-0.193,0.91-0.305,1.379-0.381c1.889-0.312,2.379-0.063,3.258,1.611
			c0.873,1.665,1.732,3.335,2.604,5.003c0.119,0.225,0.26,0.438,0.436,0.732c0.393-1.848,0.66-3.596,1.143-5.285
			c0.455-1.599,1.1-3.148,1.742-4.688c0.115-0.277,0.621-0.551,0.947-0.553c0.92-0.008,1.896-0.037,2.732,0.265
			c0.514,0.185,1.004,0.906,1.172,1.482c0.578,1.999,1.033,4.035,1.502,6.064c0.82,3.553,1.611,7.109,2.441,10.766
			C27.309,55.247,26.381,55.46,25.465,55.729z M30.359,54.402c-1.748-1.115-2.447-2.538-2.418-4.502
			c0.037-2.309-0.033-4.612,0.607-6.88c0.514-1.823,1.771-2.978,3.109-4.186c1.336-1.201,2.635-0.745,4.086-0.494
			c1.607,0.278,1.906,1.34,1.975,2.62c0.127,2.24,0.568,4.474,0.027,6.728c-0.137,0.569-0.307,0.859-0.902,0.828
			c-1.557-0.086-3.113-0.164-4.787-0.25c-0.201,1.504-0.273,3.002,0.6,4.349c0.848,1.307,1.971,1.569,3.449,0.896
			c1.293-0.588,2.672-0.283,3.732,0.82C37.42,56.057,32.773,55.943,30.359,54.402z M45.561,55.161
			c-0.73-0.16-1.504-0.149-2.227-0.333c-2.645-0.674-4.219-2.975-4.311-5.725c-0.09-2.659,0.561-5.16,1.643-7.464
			c0.771-1.643,2.203-2.99,3.436-4.387c0.225-0.256,0.928-0.251,1.35-0.136c0.916,0.248,1.817,0.584,2.661,1.012
			c0.314,0.162,0.646,0.694,0.63,1.041c-0.072,1.454-0.289,2.899-0.431,4.352c-0.162,1.724-0.303,3.451-0.459,5.278
			c-1.576,0.994-3.303,0.381-5.044,0.143c-0.557,1.701,0.242,2.897,1.227,4.029c0.813,0.935,1.861,0.978,2.914,0.606
			c0.635-0.224,1.17-0.707,1.782-1.002c0.271-0.13,0.642-0.164,0.929-0.091c0.69,0.172,1.112,0.621,1.123,1.472
			C49.146,54.792,47.518,55.584,45.561,55.161z M60.926,47.484c-1.197,0.166-2.395,0.342-3.596,0.494
			c-0.424,0.054-0.781,0.023-0.729,0.681c0.08,1.151,0.021,2.313,0.049,3.469c0.029,1.159,0.092,2.315,0.145,3.58
			c-0.891,0.147-1.742,0.289-2.729,0.453c-0.074-1.345-0.133-2.624-0.219-3.9c-0.091-1.286-0.205-2.573-0.318-3.967
			c-0.877-0.05-1.684-0.119-2.494-0.135c-0.76-0.015-1.297-0.246-1.229-1.118c0.062-0.863,0.616-1.145,1.414-1.098
			c0.666,0.039,1.338,0.063,2.086,0.096c-0.281-2.69-0.597-5.226-0.795-7.769c-0.142-1.838-0.212-3.688-0.166-5.528
			c0.049-1.953,0.887-2.411,2.659-1.614c1.82,0.817,1.729,0.914,1.687,2.865c-0.064,2.998,0.117,6,0.156,9.001
			c0.006,0.658-0.191,1.316-0.226,1.979c-0.015,0.254,0.176,0.518,0.276,0.777c0.14-0.208,0.379-0.406,0.398-0.625
			c0.055-0.635,0.471-0.872,0.885-0.555c1.021,0.782,1.945,1.691,2.906,2.55C61.037,47.242,60.98,47.363,60.926,47.484z
			 M68.76,53.986c-0.371,0.395-0.842,0.824-1.34,0.938c-0.887,0.208-1.828,0.267-2.744,0.245c-1.062-0.025-1.742-0.779-1.943-1.706
			c-0.537-2.422-0.944-4.87-1.354-7.317c-0.117-0.702-0.094-1.433-0.066-2.147c0.033-1.015,0.511-1.33,1.48-1.018
			c0.287,0.095,0.562,0.246,0.844,0.369c1.885,0.83,1.846,0.888,1.863,2.892c0.02,2.049,0.209,4.093,0.336,6.139
			c0.016,0.228,0.133,0.445,0.238,0.787c2.197-1.876,2.832-4.219,2.824-6.809c-0.004-0.605-0.217-1.214-0.181-1.811
			c0.025-0.433,0.218-0.931,0.509-1.24c0.172-0.185,0.696-0.145,1.021-0.055c0.489,0.134,0.937,0.407,1.403,0.609
			c1.091,0.466,1.33,1.27,1.289,2.427c-0.084,2.36-1.264,4.127-2.711,5.815C69.715,52.711,69.301,53.408,68.76,53.986z
			 M83.061,50.438c-1.322,1.117-2.645,2.248-4.039,3.272c-0.524,0.384-1.256,0.485-1.908,0.726
			c-0.428,1.861-0.178,4.545,0.847,8.738c-1.063,0.031-2.106,0.102-3.149,0.057c-0.179-0.008-0.438-0.487-0.479-0.774
			c-0.388-2.522-0.718-5.054-1.11-7.575c-0.064-0.419-0.273-0.896-0.572-1.181c-0.89-0.841-0.818-1.478,0.272-2.048
			c0.205-0.105,0.341-0.457,0.392-0.717c0.457-2.27,0.764-4.576,1.356-6.807c0.651-2.451,2.074-4.467,4.397-5.627
			c0.625-0.311,1.509-0.251,2.238-0.144c0.689,0.103,1.318,0.579,2.006,0.741c1.875,0.434,2.32,1.926,2.49,3.465
			C86.135,45.588,85.525,48.359,83.061,50.438z"/>
		<path d="M77.229,50.855c3.797-1.965,5.629-6.095,4.188-9.796C78.416,43.661,77.969,47.264,77.229,50.855z"/>
	</g>
</g>
<g>
</g>
<g>
</g>
<g>
</g>
<g>
</g>
<g>
</g>
<g>
</g>
<g>
</g>
<g>
</g>
<g>
</g>
<g>
</g>
<g>
</g>
<g>
</g>
<g>
</g>
<g>
</g>
<g>
</g>
</svg>
