<?xml version="1.0" encoding="UTF-8" standalone="no"?>
<svg width="82px" height="80px" viewBox="0 0 82 80" version="1.1" xmlns="http://www.w3.org/2000/svg" xmlns:xlink="http://www.w3.org/1999/xlink">
    <!-- Generator: Sketch 39.1 (31720) - http://www.bohemiancoding.com/sketch -->
    <title>M Swarm White Fill</title>
    <desc>Created with Sketch.</desc>
    <defs></defs>
    <g id="Page-1" stroke="none" stroke-width="1" fill="none" fill-rule="evenodd">
        <g id="App-download-desktop" transform="translate(-117.000000, -282.000000)">
            <g id="M-Swarm-White-Fill" transform="translate(117.000000, 282.000000)">
                <path d="M19.6193179,21.1932478 C20.8228189,18.0131994 22.9488093,15.1551819 25.9158187,13.0721842 C31.8252024,8.92335581 39.3852763,9.03233843 45.0733604,12.7450951 C51.4233601,10.4348056 58.7513088,12.6302842 62.7676751,18.5354068 C64.826518,21.5623782 65.6801599,25.0716669 65.4342059,28.476184 C67.1852761,29.0083619 68.7800924,30.1185764 69.9154256,31.7535975 C72.4634226,35.4231915 71.7840068,40.4211614 68.4691345,43.2652235 C72.5770894,49.9541081 70.8216727,58.8103934 64.3703643,63.3393657 C61.6864444,65.2236578 58.6003948,66.0706973 55.5725173,65.9659436 C54.9870971,68.243984 53.6262068,70.3280398 51.5701475,71.7715484 C47.6968133,74.4907762 42.6028194,74.0616135 39.2271119,71.0295088 C39.0317084,71.1835255 38.831005,71.3329553 38.6250473,71.4775435 C32.5739839,75.7258516 24.2789042,74.185891 20.0975749,68.038145 C18.5822446,65.8101774 17.8151265,63.2827794 17.7409408,60.7633959 C14.4081013,60.1972614 11.3127758,58.2614291 9.33672667,55.1491402 C6.00890215,49.9077974 6.98193055,43.1039688 11.3469976,39.0164711 C8.1238176,33.7294459 9.5173521,26.746081 14.6095279,23.1710305 C16.1574323,22.0843822 17.8743952,21.433852 19.6193179,21.1932478 Z M0.599232595,36.077941 C1.66623873,34.4974327 3.7925373,34.0950224 5.34818965,35.179077 C6.903842,36.2631315 7.2999238,38.4234036 6.23291767,40.0039119 C5.16591153,41.5844201 3.03961296,41.9868304 1.48396061,40.9027759 C-0.0716917399,39.8187214 -0.467773539,37.6584492 0.599232595,36.077941 Z M14.3003762,16.9513549 C13.4860776,15.7540053 13.7812105,14.1126756 14.9597299,13.2853663 C16.1382494,12.4578867 17.7537667,12.7579055 18.5680653,13.9552551 C19.3823639,15.1524343 19.087231,16.7939345 17.9087115,17.6212437 C16.7301921,18.448553 15.1146747,18.1487045 14.3003762,16.9513549 Z M12.3435443,64.9676793 C12.1585831,64.0965853 12.7035729,63.2380987 13.5609676,63.0500119 C14.4183622,62.8620954 15.2635156,63.415793 15.4484768,64.2868869 C15.6334379,65.1579809 15.0884481,66.0166379 14.2310535,66.2045544 C13.3736588,66.3924708 12.5285054,65.8387733 12.3435443,64.9676793 Z M78.8238956,33.7264643 C78.6377606,32.8504297 79.1859365,31.9871727 80.0481941,31.7980637 C80.9104518,31.609125 81.7601328,32.1658892 81.9462678,33.0419238 C82.132235,33.9179585 81.5842269,34.7812155 80.7219692,34.9703245 C79.8597115,35.1592631 79.0100306,34.602499 78.8238956,33.7264643 Z M22.0890514,2.23506323 C21.8774277,1.23891882 22.500896,0.25691499 23.4813745,0.0419099878 C24.4620207,-0.173095015 25.4284134,0.460334937 25.6400371,1.45647935 C25.8516608,2.45279413 25.2281925,3.43462759 24.247714,3.6496326 C23.2670678,3.8646376 22.3006751,3.23137802 22.0890514,2.23506323 Z M74.1074535,44.4812292 C73.8572612,43.3033016 74.5942551,42.1422405 75.7538256,41.8880508 C76.9132285,41.633861 78.0558625,42.3828008 78.3060547,43.5607284 C78.5562469,44.738656 77.819253,45.899717 76.6598502,46.1539068 C75.5004473,46.4079262 74.3576457,45.6591568 74.1074535,44.4812292 Z M37.1525856,78.5096212 C36.4595263,77.4906474 36.7107246,76.0939667 37.7136735,75.3898338 C38.7166224,74.685701 40.0913381,74.9409129 40.7843974,75.9598867 C41.4774567,76.9788605 41.2262584,78.3755412 40.2233095,79.079674 C39.2203606,79.7838069 37.8456449,79.5285949 37.1525856,78.5096212 Z M42.9761618,7.43840577 C42.0127876,5.8083203 42.532624,3.69336618 44.1370739,2.71459935 C45.7415238,1.73583252 47.8232171,2.26397476 48.7865913,3.89406023 C49.7499655,5.5241457 49.2301291,7.63909982 47.6256792,8.61786665 C46.0212293,9.59663348 43.9395361,9.06849124 42.9761618,7.43840577 Z M68.7017083,25.6545598 C67.7951807,24.3217673 68.1238514,22.4949062 69.435516,21.5738943 C70.7473483,20.6530528 72.5454792,20.9868046 73.4520068,22.3195971 C74.3585344,23.6522192 74.0298637,25.4792506 72.7181991,26.4002626 C71.4063667,27.3211041 69.6080682,26.9873523 68.7017083,25.6545598 Z M57.6887729,74.0966179 C56.5654232,72.445066 56.9727402,70.1810395 58.5983189,69.0399115 C60.2238976,67.8986132 62.4521512,68.3122678 63.5755009,69.9638197 C64.6988506,71.6153716 64.2915336,73.8793981 62.6661226,75.0206965 C61.0405438,76.1618245 58.8121226,75.7481698 57.6887729,74.0966179 Z" id="M-Swarm" fill="#EE1C3F"></path>
                <path d="M57.6751062,54.7068126 C57.1822678,51.5054188 51.3483618,53.9743986 50.9888363,50.4668526 C50.4788935,45.4902194 57.7614661,34.7631394 57.1876338,30.5993341 C56.6711512,26.8508871 54.1843209,26.0653182 52.0223046,26.0261334 C49.9203209,25.9879709 49.3656052,26.3287078 48.6546031,26.7478142 C48.2447708,26.9892263 47.6561819,27.4679617 46.8386972,26.6776224 C46.2952166,26.1522061 45.9363618,25.7845509 45.3618588,25.3177413 C45.0695766,25.0800773 44.6034007,24.7805696 43.8218015,24.6636968 C43.04037,24.5469944 42.0292044,24.6636968 41.3856134,24.9439529 C40.7420224,25.224209 40.2364395,25.7146999 39.7078833,26.1815095 C39.1791594,26.6486598 37.8383168,28.1743094 36.5880265,27.6117527 C36.0463905,27.3679554 34.2096911,26.4362103 32.8856175,25.8540613 C30.327687,24.7292887 26.6381901,26.5508683 25.3100919,28.949997 C23.3338751,32.5193867 19.431413,46.5429261 18.8411471,48.3921055 C17.5153966,52.5450071 20.5195479,55.9307396 24.5719242,55.7356678 C26.2847013,55.6532094 27.425323,55.0170536 28.5074211,53.01795 C29.1325663,51.8633629 35.007053,36.2722632 35.4437156,35.5250272 C35.7608158,34.9824036 36.8179283,34.2666857 37.7142269,34.733836 C38.6106931,35.200816 38.7889467,36.1746421 38.65664,37.0920763 C38.4425009,38.5758153 34.2992371,48.0868052 34.1401001,49.1633635 C33.8696175,50.9938023 34.7255029,52.010902 36.594734,52.1107379 C37.8758792,52.1792261 39.1528322,51.7108831 40.1663455,49.7691938 C40.7331348,48.6830948 47.2669753,35.3877102 47.8453353,34.5002608 C48.4802064,33.5257532 48.9916584,33.2054605 49.6381001,33.2391935 C50.1404968,33.2656006 50.9437279,33.3961028 50.7431717,34.9251598 C50.5463046,36.4245727 45.2927708,46.1808932 44.7414089,48.5697998 C44.004415,51.7631863 45.7292657,54.9981427 48.5717647,56.4133935 C50.3843168,57.3158353 58.3146727,58.8617587 57.6751062,54.7068126" id="Fill-41" fill="#FFFFFF"></path>
            </g>
        </g>
    </g>
</svg>