<svg xmlns="http://www.w3.org/2000/svg" viewBox="0 0 498.15 149.23"><defs><style>.cls-slack-1{fill:#443642;}.cls-slack-2{fill:#70cadb;}.cls-slack-3{fill:#e01765;}.cls-slack-4{fill:#e8a723;}.cls-slack-5{fill:#3eb890;}.cls-slack-6{fill:#cc2027;}.cls-slack-7{fill:#361238;}.cls-slack-8{fill:#65863a;}.cls-slack-9{fill:#1a937d;}</style></defs><title>Asset 1</title><g id="Layer_2" data-name="Layer 2"><g id="Layer_1-2" data-name="Layer 1"><path class="cls-slack-1" d="M177,58.54c0-14.82,10.8-25.17,30.44-25.17,12,0,21.78,3.83,27.09,7.57a3.46,3.46,0,0,1,1.3,4.25c-1,2.6-3,6.51-4.32,9.05-.8,1.48-2.84,1.29-3.88.76-3.78-1.92-10-5.16-15.69-5.76a33.38,33.38,0,0,0-4.35-.19c-5,.11-9.21,1.86-10.69,5.68a6.74,6.74,0,0,0-.48,2.27c-.14,5,6.89,6.87,15.4,8.33,15.82,2.71,27.79,7.35,27.79,23.63,0,13.83-11,26.32-32.52,25.94-14.19-.29-24.26-5.08-29.66-9.74-.18-.16-2.24-2.25-1.14-4.77a35.76,35.76,0,0,1,5.06-8.92c.93-1.27,3.38-1.47,4.65-.68,4.45,2.76,11.77,7.2,20.21,7.49.67,0,1.33,0,2,0,7.59-.18,12.18-3.06,12.09-7.91-.08-4.27-6.1-6.77-15.68-8.57C189.3,79,177,73.92,177,58.54"/><path class="cls-slack-1" d="M315.85,79.64c-10.78.14-20.66,3.09-20.95,11.51,0,6.68,5.42,10,13,9.54,7.3-.7,12.87-3.87,15.32-8.07.91-1.56,1-7.38,1-9.87,0-.53-1.06-1.53-1.52-1.73a17.4,17.4,0,0,0-6.87-1.38M280,45.7a43.59,43.59,0,0,1,31-11.16C332,35,343.07,44.83,344.1,68.4c.43,9.72-.28,36.83-.45,43.59,0,1-.35,1.64-1.66,1.66-3.46.14-11.46.08-15.13,0-1.85-.09-2.07-1-2.09-2,0-.63-.07-2.5-.11-4a.61.61,0,0,0-1-.58c-4.93,5.26-13,7.81-21.59,7.81-13,0-26.06-7.68-26-22.88,0-15.57,11.08-23.25,23.21-25.06a47.16,47.16,0,0,1,23.15,2.51c.42.17,1.29-.08,1.3-.68a45.69,45.69,0,0,0-.45-7.56c-1-4.57-4.78-8.24-12.78-9.23a24.62,24.62,0,0,0-5-.14c-6.36.5-14,5.46-17.19,7.32a2,2,0,0,1-2.29-.37c-1.85-2.39-6.5-9.38-6.87-10.5a2.45,2.45,0,0,1,.8-2.64Z"/><path class="cls-slack-1" d="M351,74.69c-.12-21.72,15-40,39.57-40.19,15.33-.1,26.47,6.85,28.43,10.13a2.5,2.5,0,0,1-.08,2.19,76.18,76.18,0,0,1-6.91,11c-1,1.28-2.08.18-3.33-.65A32.7,32.7,0,0,0,392.1,52c-11.82,0-20.61,8.1-20.52,23,.09,14.3,8.52,22.17,20.56,22.45,6.29.16,12.39-3.46,15.67-6.42,1-.9,2.1-.45,3.27.47a94.31,94.31,0,0,1,7.46,8.51,2.45,2.45,0,0,1-.13,3.31c-5,6.31-14.61,11.62-27.35,11.69-26.67.19-39.91-18.57-40-40.36"/><path class="cls-slack-1" d="M478.36,114.07c1.25-.09,14.61-1.94,18.71-2.88a1.18,1.18,0,0,0,.81-1.94c-2.29-3.43-8.31-13.19-14.62-21.92-5.8-8-11.91-15.09-13.89-17.8a1.28,1.28,0,0,1,.07-1.82c3.76-3.68,19.49-19.1,25.41-25.47,2.29-2.48.92-3.54-1-4.12C490.07,37,484,35.6,480.53,34.87A4.71,4.71,0,0,0,476,36c-5.91,5.52-24,23.63-29.35,29-1,1-1.54.76-1.54-.64,0-10.44-.25-55.14-.62-62.49A2.14,2.14,0,0,0,442.68.16c-3.39-.18-11.95-.23-15.32,0A2.39,2.39,0,0,0,425.43,2c-.78,11.76.33,98.05.79,110.13a1.62,1.62,0,0,0,1.51,1.6c3.36.2,11.69.18,15.57.11,1.91,0,2.15-1.34,2.15-1.34l.29-23.16a3.84,3.84,0,0,1,.52-1.37c1.37-1.47,5.16-5.54,6.78-7.11a.9.9,0,0,1,1.4.18c1.92,2.59,7.39,11,12.47,18.53,4.66,6.91,9,13,9.32,13.47a2.24,2.24,0,0,0,2.14,1h0Z"/><path class="cls-slack-1" d="M251.13,114c1.18,0,10.09,0,14,0a2,2,0,0,0,2.07-1.87c.84-16.93.48-97.51,0-110.24,0-1.1-.52-1.51-1.27-1.61-3.39-.45-13-.35-16.11.46a1.24,1.24,0,0,0-1,1.21c-.76,32.8-.25,108.42-.09,109.85a2.18,2.18,0,0,0,2.39,2.18Z"/><path class="cls-slack-2" d="M12.53,80.34A12.17,12.17,0,0,1,.67,72c-.07-.2-.12-.39-.18-.58A12.76,12.76,0,0,1,8.75,55.83L113,20.91a14.13,14.13,0,0,1,3.81-.56A12.49,12.49,0,0,1,129,28.87l.16.5c1.95,6.82-2.89,12.9-8.7,14.85L16.77,79.62a13.49,13.49,0,0,1-4.23.72Z"/><path class="cls-slack-3" d="M29.91,131.6A12.16,12.16,0,0,1,18,123.38c-.06-.19-.12-.38-.18-.58a12.85,12.85,0,0,1,8.25-15.74L130.32,71.82a13.42,13.42,0,0,1,4.14-.69,12.6,12.6,0,0,1,12.15,8.44l.16.53a13.19,13.19,0,0,1-1.59,10.6c-1.49,2.32-6.2,4.37-6.2,4.37L34.34,130.85a14.36,14.36,0,0,1-4.43.76Z"/><path class="cls-slack-4" d="M116.68,131.82a12.8,12.8,0,0,1-12.25-8.72L69.64,19.76l-.17-.58a12.81,12.81,0,0,1,24.47-7.6l34.79,103.33.1.33a12.8,12.8,0,0,1-12.14,16.58Z"/><path class="cls-slack-5" d="M65,149.23a12.8,12.8,0,0,1-12.26-8.73L17.93,37.16l-.18-.58A12.8,12.8,0,0,1,26,20.93a13,13,0,0,1,4-.67A12.8,12.8,0,0,1,42.22,29L77,132.33c.07.18.12.38.18.57A12.81,12.81,0,0,1,65,149.23h0Z"/><path class="cls-slack-6" d="M99.53,108.55l24.26-8.29-7.93-23.55L91.57,84.92Z"/><path class="cls-slack-7" d="M47.9,126.21l24.26-8.29-8-23.73-24.28,8.21Z"/><path class="cls-slack-8" d="M82.26,57.26,106.52,49,98.69,25.7,74.38,33.84Z"/><path class="cls-slack-9" d="M30.62,74.89,54.88,66.6,47,43,22.65,51.17l8,23.71Z"/></g></g></svg>
