<?xml version='1.0' encoding='iso-8859-1'?>
<svg version="1.1" xmlns="http://www.w3.org/2000/svg" viewBox="0 0 512 512" xmlns:xlink="http://www.w3.org/1999/xlink" enable-background="new 0 0 512 512">
  <g>
    <path d="m374,0h-236c-76.2,0-138,61.8-138,138v236c0,76.2 61.8,138 138,138h236c76.2,0 138-61.8 138-138v-236c0-76.2-61.8-138-138-138zm-14.5,354.6c-7.8,2.6-55.6,5.2-103.5,5.2-47.9,0-95.7-2.6-103.5-5.2-20.7-6.5-25.9-51.7-25.9-98.3 0-46.6 5.2-91.8 25.9-98.3 7.8-2.6 55.6-5.2 103.5-5.2 47.9,0 95.7,2.6 103.5,5.2 20.7,6.5 25.9,51.7 25.9,98.3 0,46.6-5.2,91.8-25.9,98.3z"/>
    <polygon points="230,314.5 307.6,256.3 230,198.1  "/>
  </g>
</svg>
